<?xml version="1.0" encoding="UTF-8"?>
<svg version="1.1" viewBox="0 0 1600 1600" width="1280" height="1280" xmlns="http://www.w3.org/2000/svg">
<path transform="translate(649 377)" d="m0 0c1.54-0 3.08-0.01 4.62-0.01 4.19-0.01 8.38 0 12.6 0.01 4.53 0.01 9.07-0 13.6-0.01 8.87-0.01 17.7 0 26.6 0.01 10.3 0.01 20.7 0.01 31 0.01 18.4 0 36.9 0.01 55.3 0.03 17.9 0.02 35.8 0.02 53.6 0.02 19.5-0.01 39-0.01 58.5 0 2.08 0.01 4.16 0.01 6.24 0.01h3.09 21.6c8.77 0 17.5 0 26.3 0.02 4.48 0.01 8.95 0.01 13.4 0.01 4.1-0.01 8.2 0 12.3 0.01h4.43c2.02-0.01 4.04 0 6.06 0.01h3.39c4.59 0.32 9.1 1.35 13.6 2.25v92c-4.96 0.62-9.74 1.17-14.7 1.47-1.84 0.12-1.84 0.12-3.72 0.24-2.54 0.15-5.07 0.31-7.61 0.46-6.93 0.44-13.7 1.15-20.5 2.43-3.17 0.52-6.27 0.4-9.47 0.4-2.08 0.42-4.13 0.93-6.19 1.43-4.4 0.9-8.85 1.37-13.3 1.88-2.98 0.34-5.64 0.74-8.5 1.69-2.6 0.35-5.2 0.66-7.81 0.94-5.65 0.65-11.3 1.31-16.9 2.06-1.09 0.15-2.17 0.29-3.3 0.44-2.87 0.55-5.25 1.45-7.95 2.56-1.57 0.37-3.16 0.68-4.75 0.94-0.94 0.16-1.88 0.33-2.85 0.49-1.12 0.19-2.24 0.38-3.4 0.57-2.25 0.39-4.5 0.77-6.74 1.16-1.53 0.27-3.06 0.53-4.6 0.79-3.94 0.64-3.94 0.64-7.66 2.05-2.81 0.49-5.64 0.9-8.47 1.31-2.87 0.56-5.49 1.27-8.27 2.14-6.08 1.88-12.2 2.93-18.5 4.02-5.06 0.91-9.79 2.11-14.6 3.81-2.67 0.91-5.36 1.58-8.1 2.24-7.04 1.69-14 3.62-21 5.48-0.67 0.18-1.35 0.36-2.04 0.54-7.14 1.9-13.9 4.16-20.6 7.11-4.1 1.66-8.26 3-12.5 4.35-8.04 2.62-15.2 5.88-22.5 10.1-0.64 0.37-1.27 0.74-1.93 1.11-1.27 0.73-2.53 1.47-3.79 2.21-4.42 2.59-4.42 2.59-6.64 2.59l-1 3c-1.49 1.43-1.49 1.43-3.31 2.88-7.11 5.95-9.45 11.8-11.5 20.6-0.51 9.56 3.44 17 9.3 24.4 5.31 5.72 12 9.85 18.5 14.1 0.92 0.63 1.84 1.25 2.79 1.89 6.08 4 12.4 7.31 18.9 10.5 2.72 1.35 5.34 2.78 7.97 4.31 10.7 6.01 24.2 10 36.2 12.4 2.92 0.59 5.45 1.45 8.15 2.69 0.79 0.36 1.58 0.71 2.39 1.08 0.83 0.39 1.66 0.77 2.52 1.16 0.85 0.39 1.7 0.77 2.57 1.17 2.67 1.22 5.33 2.46 7.99 3.71 0.9 0.41 1.79 0.82 2.71 1.24 5.66 2.65 11.2 5.52 15.7 9.88v2c0.9 0.31 0.9 0.31 1.81 0.63 3 1.88 3.77 4.19 5.19 7.37l1 1c0.15 2.25 0.22 4.5 0.25 6.75 0.03 1.24 0.05 2.47 0.08 3.74-0.98 10.5-12.9 20.7-20.3 27.5-5.06 4-5.06 4-8 4v2c-2.41 1.68-4.81 3.23-7.31 4.75-0.73 0.45-1.46 0.9-2.21 1.36-4.95 3.03-9.98 5.88-15.1 8.6-2.16 1.18-4.19 2.44-6.24 3.79-6.03 3.85-12.7 6.55-19.2 9.42-5.45 2.41-10.8 4.94-16.2 7.52-6.11 2.91-12.2 5.72-18.5 8.26-2.54 1.03-5.07 2.09-7.59 3.17-8.28 3.53-16.6 6.95-25 10-3.94 1.46-7.83 3-11.7 4.65-6.53 2.76-13.2 5.1-19.9 7.43-9.57 3.35-9.57 3.35-19 7.07-3.95 1.62-7.94 2.8-12.1 3.93-4.85 1.34-9.26 2.92-13.8 5.07-3.17 1.38-6.44 2.28-9.75 3.22-2.17 0.64-4.24 1.39-6.34 2.21-6.48 2.51-13.2 4.2-20.1 5.5-1.39-2.78-1.13-5.04-1.13-8.15v-1.94c-0.01-2.17 0-4.34 0-6.51 0-1.56-0.01-3.12-0.01-4.68-0.01-4.31-0.01-8.62 0-12.9 0-4.64-0.01-9.28-0.01-13.9-0.01-9.1-0.02-18.2-0.02-27.3v-22.2c-0.01-21-0.02-41.9-0.01-62.9v-3.43-3.43c0-18.4-0.01-36.7-0.03-55-0.01-18.8-0.02-37.7-0.02-56.5 0-10.6 0-21.2-0.01-31.7-0.01-9-0.01-18-0.01-27 0.01-4.6 0.01-9.19 0-13.8-0.01-4.21-0.01-8.42 0-12.6v-4.56c-0.04-10-0.03-19.9 4.75-28.9 0.42-0.82 0.85-1.65 1.28-2.5 1.22-1.94 1.22-1.94 3.22-2.94 0.91-1.35 1.78-2.73 2.63-4.12 3.39-5.24 7.71-10 13.4-12.9 0.9-0.68 0.9-0.68 1.81-1.37 10.8-8.06 23.9-8.07 36.9-8z" fill="#0052AF"/>
<path transform="translate(1014,478)" d="m0 0c0.11 36.2 0.2 72.4 0.26 109 0 4.28 0.01 8.56 0.01 12.8 0.01 1.28 0.01 1.28 0.01 2.58 0.02 13.8 0.06 27.6 0.11 41.3 0.04 14.2 0.07 28.3 0.08 42.4 0.01 8.73 0.03 17.4 0.07 26.2 0.03 5.99 0.03 12 0.03 18-0.01 3.45 0 6.9 0.03 10.4 0.13 20-1.26 33.8-15 49.4-6.1 5.38-12.1 10.1-19.6 13.3-1.01 0.43-1.01 0.43-2.03 0.87-6.8 2.73-13.5 3.28-20.8 3.23-0.75 0-1.5-0.01-2.27-0.01-1.61 0-3.23-0.01-4.84-0.01-2.56-0.02-5.12-0.02-7.68-0.03-6.36-0.01-12.7-0.04-19.1-0.06-5.38-0.02-10.8-0.04-16.1-0.05-2.52 0-5.03-0.01-7.54-0.03-1.55 0-3.11 0-4.66-0.01-0.69 0-1.38-0.01-2.09-0.01-3.48 0-6.81 0.22-10.2 0.74-1.2 0.12-2.4 0.24-3.63 0.37l-2-2c0.25-2.06 0.25-2.06 1-4l2-1c0.65-1.11 0.65-1.11 1.31-2.25 1.9-3.08 4.1-5.23 6.69-7.75 0.83-0.99 1.65-1.98 2.5-3 2.37-2.85 4.85-5.42 7.5-8l7.35-7.35c1.7-1.7 3.39-3.4 5.08-5.11 3.77-3.82 7.52-7.59 11.6-11 2.94-2.17 2.94-2.17 3.94-4.5 0.99-0.33 1.98-0.66 3-1 0.68-1.33 1.35-2.66 2-4 1.77-1.75 1.77-1.75 3.81-3.44 3.22-2.72 6.24-5.53 9.19-8.56 0.76-0.74 1.53-1.49 2.31-2.25 9.34-8.91 9.34-8.91 15.7-19.8l3-3c6.75-9.15 11-18 14-29 0.2-0.65 0.4-1.3 0.61-1.96 2.61-13.5-0.44-27.2-7.87-38.6-9.65-13.3-22-21.5-36.7-28.4-1.58-0.83-3.17-1.66-4.75-2.5-5.63-2.83-11.5-4.92-17.4-7.07-2.51-0.92-4.91-1.91-7.37-2.98-3.52-1.48-6.95-2.5-10.6-3.45-0.64-0.17-1.29-0.34-1.96-0.51-5.1-1.32-10.2-2.57-15.3-3.84-2.89-0.75-5.68-1.71-8.51-2.65-7.24-1.76-14.6-3.11-21.9-4.5-4.27-0.83-8.08-1.82-12.1-3.5-1.87-0.36-3.74-0.67-5.62-0.94-4.97-0.77-9.69-1.89-14.5-3.27-3.18-0.88-6.39-1.62-9.61-2.35-4.46-1.02-8.87-2.09-13.2-3.44-0.99-0.29-0.99-0.29-2-0.58-8.72-2.67-19.4-6.05-24-14.4-0.1-5.46 1.49-8.89 5-13 31.2-27.2 87-34.3 126-43 2.37-0.53 4.74-1.07 7.11-1.6 10.4-2.34 20.8-4.65 31.3-6.69 4.29-0.85 8.56-1.74 12.8-2.65 0.8-0.17 1.61-0.34 2.44-0.51 3.94-0.83 7.89-1.67 11.8-2.52 13.4-2.87 27-5.54 40.5-8.03 1-0.21 2-0.41 3.04-0.63 2.99-0.37 5.04-0.03 7.96 0.63z" fill="#00BF72"/>
<path transform="translate(609 406)" d="m0 0c1.18 0.08 2.35 0.16 3.57 0.24 0.94 0.15 1.89 0.29 2.87 0.45l1 2h-6l1.31 1.31c1.56 1.56 3.13 3.12 4.69 4.69l-2 2h5c0.49 0.99 0.49 0.99 1 2-3.38 0.84-5.68 1.11-9 0v2l2 1c0.33 1.66 0.66 3.33 1 5l2 1v2l-4-1-1-4h-3c0.99 1.32 1.98 2.64 3 4h-4v4h-3c0.99 0.33 1.98 0.66 3 1-0.02 0.91-0.04 1.81-0.06 2.75-0.07 3.11-0.07 3.11 0.62 5.5 0.44 1.75 0.44 1.75-0.56 3.75l2 1h-2c0.14 1.3 0.29 2.6 0.44 3.93 0.08 0.74 0.16 1.47 0.24 2.22 0.14 1.86 0.14 1.86 1.32 2.85 0.04 1.66 0.04 3.33 0 5h2c-0.5-2.48-0.5-2.48-1-5h3v2c0.51-0.25 1.03-0.5 1.56-0.75 3.9-0.4 6.18 1.68 9.44 3.75-2.34 0.78-4.62 1.42-7 2 0.59-0.03 1.18-0.05 1.79-0.07 4.55-0.11 8.07-0.07 12.2 2.07v1l-14 1h2c2.35 0.11 4.71 0.23 7.06 0.37 1.27 0.07 2.54 0.14 3.85 0.21 1.02 0.14 2.04 0.28 3.09 0.42l1 2h-4v2h2l1 2 3 2h-9v-2h-5l2 4-5-1 2-1v-2h-5l1 3c-0.82 3.12-0.82 3.12-2 6-0.99 0.49-0.99 0.49-2 1 1.98 0.33 3.96 0.66 6 1v-3l1-2c0.99 0.33 1.98 0.66 3 1v7h-3c-1.34 0.3-2.68 0.63-4 1 2.31 0.33 4.62 0.66 7 1-2 2-2 2-5.06 2.19-2.94-0.19-2.94-0.19-3.94-1.19-0.04-1.67-0.05-3.34 0-5l-3 6-1-3c-0.99 0.49-0.99 0.49-2 1l1 4h-2v4h5v2c-1.98 0.49-1.98 0.49-4 1 2.97-0.5 2.97-0.5 6-1v-2l8 2v3l5 2-2 3 5 1-1 5c0.93 0.46 0.93 0.46 1.87 0.93 2.53 1.27 4.76 2.49 7.13 4.07-2.49 1.24-3.41 0.77-6 0 0.99 1.32 1.98 2.64 3 4-0.99 0.49-0.99 0.49-2 1 1.72 3.25 1.72 3.25 5 4l-1 2h-4l-1 2 3 2-1 2c-4.05 0.77-7.9 1.04-12 1 1.17 0.07 1.17 0.07 2.37 0.15 1.52 0.11 1.52 0.11 3.07 0.22 1 0.07 2.01 0.14 3.05 0.21 0.83 0.14 1.66 0.28 2.51 0.42l1 2c-3.25 1.08-5.19 0.99-8.56 0.69-0.98-0.08-1.95-0.16-2.95-0.24-2.49-0.45-2.49-0.45-4.49-2.45h2l-1-4c-0.59 1.2-0.59 1.2-1.19 2.43-1.81 2.57-1.81 2.57-4.5 3.38-0.76 0.06-1.53 0.12-2.31 0.19-0.5-0.99-0.5-0.99-1-2h5v-5h-2c0.49 1.48 0.49 1.48 1 3-0.99-0.33-1.98-0.66-3-1-1-6.63-1-6.63-1-10h5l-1-8h-4v-2h11c-4.48-1.07-4.48-1.07-7-1l-1-3v2c-3 1-3 1-6 0 0.99 3.46 0.99 3.46 2 7h-2v2l2 1h-2v2h2l0.06 5.25c0.01 0.97 0.02 1.95 0.04 2.95-0.09 2.47-0.49 4.43-1.1 6.8 0.38 2.68 0.38 2.68 1 5h-2v2h2c0 4 0 4-0.56 6.43-0.49 2.84-0.12 4.79 0.56 7.57v2h-4v-3c-0.15 0.76-0.29 1.52-0.44 2.31-0.56 2.69-0.56 2.69-1.56 5.69l2 1-2 2-1 3 2 1-2 2c1.79 3.01 1.79 3.01 4.18 4.75 1.82 2.25 1.82 2.25 1.69 5.87-0.88 3.39-1.53 4.03-3.87 6.38l1 3h2v7h2v4c1.37 0.05 1.37 0.05 4-1v4h2l-1-3 2-1c0.59 2.76 1 5.16 1 8-3 1-3 1-5 1 0.47 1.09 0.95 2.18 1.44 3.31 0.96 2.22 1.79 4.38 2.56 6.69l-2 1 4 2h-2c0.37 0.57 0.74 1.15 1.12 1.75 0.44 1.11 0.44 1.11 0.88 2.25-0.65 1.34-1.32 2.67-2 4 0.3 2.69 0.3 2.69 1 5l5-1c0.08 0.95 0.16 1.9 0.25 2.87 0.39 3.21 0.39 3.21 2.69 4.38 1.02 0.37 1.02 0.37 2.06 0.75l2 2c1.31 0.69 2.65 1.37 4 2l-4 1 1 3 2 1v2h-6v2h11l1 2c-4.34 0.93-7.67 0.93-12 0 1.63 1.71 2.87 2.93 5 4l1-2c1.98 0.66 3.96 1.32 6 2l-1 2h-10c0.99 1.32 1.98 2.64 3 4h-7l1 4h-3v-5c-0.99 0.33-1.98 0.66-3 1v-2h3l-4-2-1 9-2-4c-0.99-0.33-1.98-0.66-3-1 0-3 0-3 1-4l-2-1 1-2c-0.99 0.33-1.98 0.66-3 1-0.74 2.01-0.74 2.01-1 4h2c0 3 0 3-2.38 5.69-2.62 2.31-2.62 2.31-4.62 2.31v2h2l-1 3h3v7l-3-3-2 2h2l1 5 2-3c0.31 1.11 0.62 2.22 0.94 3.37 0.72 1.98 0.72 1.98 2.06 3.63 2.94 1.21 5.84 1.67 9 2l-1 2c-5.75 0.12-5.75 0.12-8-1l1 2h6c0.59 2.76 1 5.16 1 8h3c-0.5-1.49-0.5-1.49-1-3l4-1v-2c-0.99-0.33-1.98-0.66-3-1l1-3-2-1 4-2v2c0.99 0.33 1.98 0.66 3 1 0.75 1.93 0.75 1.93 1 4l-1 2h4l2 6c-3-1-3.95-1.75-6-4l4 6-1 2-6-4v3c0.99-0.33 1.98-0.66 3-1l-1 3c-0.89-0.01-1.79-0.03-2.71-0.04-1.17-0.01-2.34-0.02-3.54-0.03-1.16-0.01-2.32-0.02-3.52-0.03-2.65 0.08-4.76 0.16-7.23 1.1l-1 2 2 1-2 2c0.32 3.1 0.32 3.1 1 6 2.31-0.33 4.62-0.66 7-1v-3h3l1-3c0.6 0.31 1.19 0.62 1.81 0.93 2.28 1.17 2.28 1.17 5.19 2.07 1.48-1.49 1.48-1.49 3-3 1.33 0.66 2.66 1.33 4 2v2c4.65 0.27 4.65 0.27 9-1l2 5h3l1-3c0.49 1.48 0.49 1.48 1 3h3l1-2v2l4 1c-0.5-1.49-0.5-1.49-1-3h3c0.2 0.57 0.41 1.15 0.62 1.75 1.9 3.11 4.24 4.45 7.38 6.25h3l2-4 2 1v2h2v-6h3l-1-5h-2l-1-5c2.49 1.2 4.68 2.45 7 4 1.65 0.38 3.32 0.73 5 1l-4-3h6v-3c-1.12 0.2-2.23 0.41-3.38 0.62-1.19 0.13-2.39 0.25-3.62 0.38l-2-2c-2.11 0.32-2.11 0.32-4 1-0.5-1.49-0.5-1.49-1-3-3.01-1.23-3.01-1.23-6-2 3.82-1.28 5.27-0.35 9 1 2.69 0.7 2.69 0.7 5 1l1-1c2 0.28 4.01 0.62 6 1-0.5-1.49-0.5-1.49-1-3 3.6 1.66 6.86 3.56 10 6 0.87 2.75 0.87 2.75 1 5 0.6 0.14 1.19 0.29 1.81 0.43 1.75 0.45 3.47 1 5.19 1.57 0.68 2.06 0.68 2.06 1 4h2v-2c-1.96-1.72-3.96-3.39-6-5l2-6c3.96 0.66 7.92 1.32 12 2l1-3h2v-2c4.09-1.92 7.63-2.34 12.1-2.57 5.03-0.24 5.03-0.24 9.88-1.43l1-3h4l1 3h-2v2h4l1-2h2l-4-4 2-4h2v-3l-2-1h2l1-2 2 2h3l-2-2 2-3c0.88 0.35 1.77 0.7 2.68 1.06 3.38 0.96 5.01 0.91 8.32-0.06l-2-2v-4h4c-1.44-0.53-2.87-1.05-4.32-1.57-0.8-0.29-1.6-0.58-2.42-0.87-2.41-0.81-2.41-0.81-5.26 0.44-2.34 0.04-4.67 0.04-7 0l1-4c0.9 0.03 0.9 0.03 1.83 0.07 0.79 0.02 1.59 0.03 2.42 0.05 1.18 0.04 1.18 0.04 2.39 0.07 2.58-0.21 4.08-1.02 6.36-2.19 2.75 0.37 2.75 0.37 5 1l-1-5h3v-3l-2-1c0.99-0.33 1.98-0.66 3-1l-2-6-11-1v-2l5-1-5-2v-2h-5c-0.11-0.64-0.21-1.28-0.32-1.94-0.22-0.68-0.45-1.36-0.68-2.06-0.99-0.33-1.98-0.66-3-1l-1-3h-2v2c-2.17-0.51-4-1-6-2v-2l-2-1v-4l5 2v-3c-0.69 0.02-1.38 0.04-2.08 0.07-0.91 0.02-1.81 0.03-2.74 0.05-0.89 0.03-1.78 0.05-2.7 0.07-2.48-0.19-2.48-0.19-5.48-2.19v-1c-0.79-0.08-1.57-0.17-2.38-0.25-2.62-0.75-2.62-0.75-3.94-2.82-0.22-0.63-0.45-1.27-0.68-1.93-0.52 0.2-1.03 0.41-1.56 0.62-3.52 0.54-6.12-0.45-9.44-1.62l-2-2h-3c-1.74-0.46-3.47-0.97-5.19-1.5-1.35-0.42-1.35-0.42-2.73-0.85-0.69-0.21-1.37-0.43-2.08-0.65 0.96-0.22 0.96-0.22 1.94-0.44 2.03-0.37 2.03-0.37 3.06-1.56-0.17-0.81-0.33-1.61-0.5-2.44-0.5-2.56-0.5-2.56 0.5-4.56-0.99-0.33-1.98-0.66-3-1v-3h-13l1-2c-0.4-2.1-0.4-2.1-1-4l-4-1v-3l-2-1 2-3c1.81 0.28 3.62 0.57 5.44 0.87 1.51 0.25 1.51 0.25 3.05 0.49 1.24 0.32 1.24 0.32 2.51 0.64l1 2h3c0.29 0.6 0.57 1.19 0.87 1.81 1.17 2.38 1.17 2.38 3.13 5.19l4-1 1 4 4-2c0.53 0.97 1.07 1.94 1.62 2.93 2.06 3.33 2.06 3.33 5.38 3.76 1.48 0.15 1.48 0.15 3 0.31 2.25 1.5 2.25 1.5 4 3l2 1v2c0.84 0.12 1.68 0.24 2.55 0.36 1.65 0.26 1.65 0.26 3.32 0.51 1.64 0.25 1.64 0.25 3.31 0.49 2.82 0.64 2.82 0.64 4.82 2.64h2v2c2.97 0.99 2.97 0.99 6 2v2c0.78-0.19 1.56-0.37 2.37-0.57 2.63-0.43 2.63-0.43 4.63 0.57v2c0.72-0.04 1.45-0.07 2.19-0.11 5.95-0.16 9.54 0.19 14.8 3.11 3.3 0.82 6.64 1.43 10 2v2c1.03 0.07 1.03 0.07 2.08 0.15 0.9 0.07 1.8 0.15 2.73 0.22 0.89 0.07 1.79 0.14 2.71 0.21 2.48 0.42 2.48 0.42 5.48 2.42v3c0.96 0.18 0.96 0.18 1.94 0.37 0.68 0.21 1.36 0.42 2.06 0.63l1 2h4l-1-2c2.31 0.19 2.31 0.19 5 1 1.68 2.43 1.68 2.43 3 5l2 2-1 2c0.99-0.33 1.98-0.66 3-1 1.87 1.25 1.87 1.25 4 3 1.65 1.01 3.32 2.02 5 3v-2l4 1v4c0.99-0.33 1.98-0.66 3-1l2 1v3l4 1-1 3 2 1c-3.34 11.6-14.6 23.1-25 29h-2v2c-2.41 1.68-4.81 3.23-7.32 4.75-0.72 0.45-1.45 0.9-2.2 1.36-4.96 3.02-9.98 5.88-15.1 8.59-2.15 1.18-4.19 2.45-6.24 3.8-6.02 3.85-12.7 6.54-19.2 9.42-5.46 2.4-10.8 4.93-16.2 7.51-6.1 2.91-12.2 5.72-18.5 8.26-2.54 1.04-5.07 2.1-7.59 3.17-8.29 3.54-16.6 6.95-25 10.1-3.94 1.45-7.83 2.99-11.7 4.64-6.53 2.76-13.2 5.1-19.9 7.44-9.57 3.35-9.57 3.35-19 7.06-3.96 1.62-7.94 2.8-12.1 3.94-4.85 1.33-9.27 2.91-13.8 5.06-3.16 1.38-6.43 2.28-9.74 3.22-2.17 0.65-4.24 1.39-6.34 2.22-6.48 2.5-13.2 4.2-20.1 5.5-1.3-2.6-1.14-4.5-1.15-7.41 0-1.14-0.01-2.27-0.02-3.43v-3.72c0-1.26-0.01-2.51-0.01-3.8-0.01-2.66-0.01-5.32-0.01-7.98 0-3.41-0.01-6.82-0.03-10.2-0.01-3.25-0.01-6.5-0.01-9.75-0.01-1.23-0.02-2.45-0.02-3.71v-3.44-3.03c0.25-2.51 0.25-2.51 2.25-5.51v3h2v-2.81-6.19h2c-0.19-0.64-0.37-1.28-0.56-1.94-0.6-4.14-0.03-7.95 0.56-12.1l2 1v-2l-2-2 1-2c-0.5-1.49-0.5-1.49-1-3 0.03-1.64 0.03-1.64 0.06-3.31 0.06-3.84-0.45-7.41-1.06-11.2-0.84-5.48-1.19-10.8-1.19-16.3v-2.13c0.05-4.93 0.05-4.93 1.19-6.06-0.19-0.56-0.37-1.12-0.56-1.69-0.44-2.31-0.44-2.31 0.56-4.94 1.37-4.63 0.69-8.65 0-13.4h-1c0-10 0-10 0.56-11.9 0.53-2.56 0.12-4.16-0.56-6.67-0.88-3.23-1.1-4.14 0-7.43l2-2c-0.32-1.34-0.66-2.67-1-4 0.32-1.67 0.66-3.34 1-5-0.03-1.98-0.07-3.96-0.1-5.93 0.15-3.23 1.08-6.01 2.1-9.07l-2-1c0-0.58 0.01-1.16 0.01-1.76 0.19-16.9 0.19-16.9-1.57-33.6-0.44-2.6-0.59-4.99-0.44-7.62l1-1c0.23-1.52 0.41-3.04 0.56-4.57 0.13-1.23 0.13-1.23 0.25-2.5 0.09-0.96 0.09-0.96 0.19-1.93h-2c-0.03-2.82-0.05-5.63-0.06-8.44-0.02-1.2-0.02-1.2-0.03-2.43-0.01-2.05 0.04-4.09 0.09-6.13 0.49-0.5 0.49-0.5 1-1 1.45-8.37 1.91-17.7 0.46-26.1-0.45-2.81-0.41-4.98-0.02-7.79 0.1-0.78 0.2-1.56 0.3-2.36 0.09-0.58 0.17-1.16 0.26-1.76h2c-0.31-0.66-0.62-1.32-0.94-2-2.52-7.12-2.19-14.6-2.06-22 1.48-0.5 1.48-0.5 3-1-0.17-0.66-0.33-1.32-0.5-2-0.62-3.73-0.57-7.22-0.5-11h3c-0.35-1.98-0.35-1.98-1-4l-2-1c0.49-2.97 0.49-2.97 1-6h2c-0.17-0.64-0.33-1.28-0.5-1.94-0.66-4.04-0.58-7.98-0.5-12.1h2c-0.31-0.66-0.62-1.32-0.94-2-1.34-3.79-1.8-6.98-2.06-11l2-3h3v-3l-2-2 4-1v-3c2.92-1.46 5.33-0.93 8.56-0.69z" fill="#004FB0"/>
<path transform="translate(640 377)" d="m0 0c1.3-0 2.61-0.01 3.95-0.01h4.3 4.6c4.21-0.01 8.42-0.01 12.6-0.01 4.54 0 9.08 0 13.6-0.01 8.89-0.01 17.8-0.01 26.7-0.01h21.7c20.5-0.01 41-0.02 61.5-0.02h3.35 3.35c17.9 0 35.8-0.01 53.8-0.02 18.4-0.01 36.8-0.02 55.2-0.02 10.3 0 20.7 0 31-0.01 8.8-0.01 17.6-0.01 26.4-0.01 4.49 0.01 8.98 0.01 13.5 0 4.11-0.01 8.22-0.01 12.3 0 1.48 0 2.97 0 4.45-0.01 2.03 0 4.05 0 6.08 0.01h3.4c4.59 0.32 9.11 1.35 13.6 2.25v92c-4.96 0.62-9.74 1.17-14.7 1.46-1.84 0.12-1.84 0.12-3.72 0.24-2.53 0.16-5.07 0.31-7.6 0.46-6.93 0.45-13.7 1.16-20.5 2.44-3.16 0.51-6.26 0.4-9.46 0.4-1.32 0.26-2.63 0.55-3.94 0.87-9.79 2.37-20.1 3.06-30.1 4.13v-2c2.9-1.94 3.89-2.3 7.18-2.63 1.89-0.18 1.89-0.18 3.82-0.37l-1-2h-14l1 3-4-1v-2c-1.59-0.06-3.17-0.09-4.75-0.13-0.88-0.02-1.77-0.04-2.67-0.07-2.59 0.03-2.59 0.03-4.68 1.29-0.63 0.3-1.25 0.6-1.9 0.91-3.75-1.38-3.75-1.38-7-3v-2h-2c-0.25-0.64-0.5-1.28-0.75-1.94-1.07-2.25-1.07-2.25-3.38-2.81-0.62-0.08-1.24-0.17-1.87-0.25v2l4 2c-2.97-0.33-5.94-0.66-9-1 0.71-1.18 0.71-1.18 1.43-2.38 0.91-1.51 1.78-3.04 2.57-4.62l-5 1v-3c4.95-0.5 4.95-0.5 10-1l1-4h-4l-1 2-4-4 8-1 1-4h2l1-1c-1.18-0.07-1.18-0.07-2.37-0.15-1.02-0.07-2.03-0.15-3.07-0.23-1.01-0.07-2.02-0.14-3.06-0.21-0.83-0.13-1.65-0.27-2.5-0.41l-1-2c0.89 0.02 1.78 0.05 2.7 0.07 1.17 0.02 2.34 0.04 3.55 0.05 1.16 0.03 2.32 0.05 3.51 0.07 3.06-0.18 4.68-0.58 7.24-2.19v-4h12l-1 3c-1.98-0.33-3.96-0.66-6-1v2c0.99 0.33 1.98 0.66 3 1v2h2v2l2-1c0.65-2.53 0.65-2.53 1-5 8.57-0.29 8.57-0.29 12 2v2c1.48-0.5 1.48-0.5 3-1l-1-4h-13v-3c2.97 0.33 5.94 0.66 9 1l-1-2h-2l-1-3c1.48-0.5 1.48-0.5 3-1v-2c-0.99-0.33-1.98-0.66-3-1l1-2c1.98 0.33 3.96 0.66 6 1v-2h-6v-2l12-3-5-1v-2c6.62-0.13 6.62-0.13 10 1l-1-5c0.51 0.47 1.03 0.95 1.56 1.44 3.1 1.99 5.8 2.21 9.44 2.56l-2-5 2-1h-3v3c-3.7-1.23-5.35-3.21-8-6l-2 3-1-3h-6l-2-4-5 1v-2c-0.99-0.33-1.98-0.66-3-1h6v-2c-0.7-0.06-1.4-0.12-2.12-0.18-0.91-0.09-1.82-0.17-2.76-0.26-0.9-0.08-1.81-0.16-2.74-0.24-2.38-0.32-2.38-0.32-4.38-1.32 0.18 0.6 0.37 1.19 0.56 1.81 0.44 2.19 0.44 2.19-0.56 5.19-1.98-0.66-3.96-1.32-6-2l1-3c-2.82-0.94-4.97-1-8-1-3.04 0-5.18-0.06-8-1v-2h16c-2.36-2.36-3.78-2.49-7-3 0.62-0.29 1.23-0.58 1.87-0.88 2.26-1.06 2.26-1.06 4.13-3.12l2-1h-6l1-2 19-1c-1.67 0.02-3.34 0.04-5.07 0.06-3.22 0.01-6.17-0.1-9.37-0.56-3.2-0.45-6.09-0.53-9.31-0.5-6.46 0.06-13.2 0.04-19.4-1.56-2.29-0.56-3.58-0.12-5.81 0.56-2.71 0.69-4.55 1.09-7.3 0.53-9.81-1.93-20.6-0.42-30.6-0.1-14.8 0.46-29.6 0.67-44.4 0.53-1.27-0.01-2.54-0.02-3.85-0.02-1.1-0.02-2.2-0.03-3.33-0.04-4.17 0.12-8.32 0.64-12.5 1.1 7.59 0.33 15.2 0.66 23 1v1c-1.61 0.14-3.21 0.29-4.82 0.44-0.99 0.09-1.98 0.18-3 0.27-2.12 0.19-4.24 0.38-6.36 0.58-1 0.09-1.99 0.18-3.01 0.27-0.92 0.08-1.84 0.17-2.79 0.26-0.67 0.06-1.34 0.12-2.02 0.18l1 2c-4 0-4 0-5.75-1.5-0.62-0.74-0.62-0.74-1.25-1.5l-2 1v2h-5l-2-4c-1.3 0.16-2.6 0.33-3.94 0.5-4.72 0.53-9.32 0.57-14.1 0.5l1-2h2v-2h-81c0.49 0.99 0.49 0.99 1 2h12c-2.37 2.36-3.26 2.37-6.5 2.69-0.8 0.08-1.59 0.17-2.41 0.26-2.09 0.05-2.09 0.05-4.09-0.95l-1 3c-3.33 1.22-6.43 1.02-9.94 0.87-3.01 0.13-4.54 0.57-7.06 2.13l-2-2-4 3v-2c-2.48-0.99-2.48-0.99-5-2l3-3c-0.5-0.99-0.5-0.99-1-2l8-1c-1.14-1.37-1.14-1.37-4.16-1.1-1.29 0.01-2.58 0.02-3.91 0.04-1.29 0.01-2.58 0.01-3.91 0.02-0.99 0.02-1.99 0.03-3.02 0.04v2l2 1h-4v-2c-2.13-0.23-2.13-0.23-3.63 1.5-0.68 0.74-0.68 0.74-1.37 1.5l1-4c-2.17 2.03-2.17 2.03-4 5-2.13 1.19-2.13 1.19-4 2v2c1.98-0.33 3.96-0.66 6-1v-2h7c-0.99 0.49-0.99 0.49-2 1v5c1.04 0.07 1.04 0.07 2.11 0.15 0.91 0.07 1.82 0.15 2.76 0.22 0.91 0.07 1.81 0.14 2.74 0.21 2.39 0.42 2.39 0.42 4.39 2.42h-12l-1 3 2 2-4 1 3 3c-2.86 1.43-4.94 0.6-8 0v-2l2-1-3-2 2-1c-0.77 0.02-1.54 0.05-2.34 0.07-1 0.02-2 0.04-3.04 0.05-1 0.03-1.99 0.05-3.02 0.07-2.6-0.19-2.6-0.19-4.6-2.19l-1 4h-4v-2l-4-2c2.49-6.11 8.05-9.92 13-14 0.49-0.54 0.99-1.07 1.5-1.63 7.56-6.93 19.4-8.49 29.1-8.5z" fill="#004FB0"/>
<path transform="translate(843,453)" d="m0 0c2.94 0.38 2.94 0.38 6 1l1 2-5-1v2c0.93 0.43 0.93 0.43 1.88 0.88 2.12 1.12 2.12 1.12 4.12 3.12 1.74 1.5 3.49 2.98 5.25 4.46 1.65 1.46 3.21 2.96 4.75 4.54 0.99-1.49 0.99-1.49 2-3 1.09 0.17 2.19 0.33 3.31 0.5 3.57 0.57 3.57 0.57 6.69 0.5v-3c-0.99-0.33-1.98-0.66-3-1 3.01-0.93 3.87-1.04 7 0v2l-2 1 8 1v2h2v2c-0.99-0.33-1.98-0.66-3-1l-2 4c2.93 0.22 2.93 0.22 5-1 2-0.04 4-0.04 6 0-1.96 1.96-3.62 3.57-6 5-4.41-0.41-4.41-0.41-6-2-1.67 0.06-1.67 0.06-3.38 0.12-3.62-0.12-3.62-0.12-5.56-1.62-0.35-0.5-0.7-0.99-1.06-1.5 0.99-0.33 1.98-0.66 3-1-3.15-0.7-5.73-1-9-1 0.99 1.65 1.98 3.3 3 5l-7 2 5 1v2c-0.84 0.15-0.84 0.15-1.69 0.31-2.41 0.58-2.41 0.58-4.43 2.25-3.69 1.84-6.52 1.63-10.6 1.45-2.46-0.13-2.46-0.13-5.3 0.99-2.34-0.28-4.68-0.61-7-1l-1 3h-2v-2c-4.14-0.21-4.14-0.21-8 1-0.99-0.33-1.98-0.66-3-1l-2 2-3-3v5c-3.5 0.8-6.71 1.12-10.3 1.1-0.98-0.01-1.95-0.01-2.96-0.01-1.01-0.01-2.01-0.02-3.05-0.03-1.03 0-2.06-0.01-3.11-0.01-2.53-0.01-5.05-0.03-7.58-0.05v2h2l-1 3c1.99 1.99 5.32 2.38 7.97 3.18 2.03 0.82 2.03 0.82 3.03 2.82-1.05-0.16-2.1-0.31-3.18-0.47-1.37-0.2-2.75-0.4-4.13-0.59-0.69-0.11-1.38-0.21-2.09-0.32-3.3-0.46-5.4-0.69-8.6 0.38h-3c0.47 0.43 0.95 0.87 1.44 1.31 1.56 1.69 1.56 1.69 2.56 4.69l5 1v2c-5.5 1.83-11 3.67-16.5 5.5-0.71 0.24-1.42 0.47-2.15 0.72-1.76 0.59-3.53 1.17-5.29 1.75-5.74 1.89-11.4 3.83-17.1 6.03-1.2 0.47-2.41 0.93-3.65 1.41-1.35 0.53-2.69 1.06-4.04 1.59-0.64 0.25-1.28 0.5-1.94 0.76-3.69 1.46-7.03 3.11-10.4 5.24-1.73 1.06-3.46 2.13-5.19 3.19-0.86 0.53-1.72 1.06-2.6 1.6-2.21 1.21-2.21 1.21-4.21 1.21-0.5 1.49-0.5 1.49-1 3-0.99 0.33-1.98 0.66-3 1l-2-3c-2.58-0.25-2.58-0.25-5 0l-1 2c-0.99-0.5-0.99-0.5-2-1v2h2v2c-2.97 0.5-2.97 0.5-6 1v2c-2.48 0.5-2.48 0.5-5 1 0.19 0.74 0.37 1.49 0.56 2.25 0.44 2.73 0.52 4.23-0.56 6.75-1.49 0.5-1.49 0.5-3 1l-1 2c-4.38-0.52-8.69-1.06-13-2-0.5 0.99-0.5 0.99-1 2l-3-2v-2c2.48-0.5 2.48-0.5 5-1h-3c-1.68-0.63-3.35-1.29-5-2 0.5-0.99 0.5-0.99 1-2 1.98 0.33 3.96 0.66 6 1l-2-4c-1.98 0.5-1.98 0.5-4 1l-1-3-2-2h4l-5-4c1.92-0.22 1.92-0.22 3.88-0.44 2.38-0.27 3.96-0.48 6.12-1.56l-2-1c0.5-0.99 0.5-0.99 1-2 1.98 0.33 3.96 0.66 6 1 0.5-0.99 0.5-0.99 1-2l1 1v-2h-7c-0.5-2.48-0.5-2.48-1-5 2.48-0.5 2.48-0.5 5-1l-3-2c2.48-0.5 2.48-0.5 5-1v-3l1-2-5-2c3.01-1.51 5.65-0.57 8.91-0.06 0.69 0.02 1.38 0.04 2.09 0.06l2-2 6 3v-3c2.97-0.5 2.97-0.5 6-1l1-3h3c0.69-2.49 1-4.38 1-7h-2l1-3-1-1 1-3c1.18 0.09 1.18 0.09 2.38 0.19 0.86-0.06 1.73-0.13 2.62-0.19l2-3c2.62-0.19 2.62-0.19 5 0l1-3h5v-2c1.98-0.5 1.98-0.5 4-1-1.31-3.12-1.31-3.12-4-5 6.75 0.88 6.75 0.88 9 2v3c0.59 0.06 1.18 0.12 1.79 0.18 0.79 0.09 1.58 0.17 2.4 0.26 0.82 0.08 1.65 0.17 2.5 0.26 2.31 0.3 2.31 0.3 5 1.05 3.38 0.37 5.44-1.08 8.31-2.75-0.85-0.05-1.71-0.1-2.59-0.15-1.1-0.07-2.21-0.15-3.35-0.23-1.1-0.06-2.2-0.13-3.34-0.21-1.35-0.2-1.35-0.2-2.72-0.41l-1-2c1.62-0.03 3.25-0.05 4.88-0.06 0.9-0.01 1.8-0.03 2.74-0.04 2.38 0.1 2.38 0.1 4.38 1.1v-2h-2c0.5-1.49 0.5-1.49 1-3 0.6 0.35 1.2 0.7 1.81 1.06 2.3 1.27 2.3 1.27 5.19-0.06l-4-1v-3l-4-2c5.45 0.57 9.91 1.95 15 4v4l4-1-3-3h4l1-2h4v-2h3v2c1.98 0.33 3.96 0.66 6 1v2h2v-2c3.48-0.81 6.52-1.08 10.1-0.88 0.93 0.05 1.86 0.1 2.82 0.15s1.92 0.11 2.91 0.17c0.98 0.05 1.96 0.1 2.97 0.16 2.41 0.12 4.81 0.26 7.22 0.4v-2c-1.07 0.21-2.14 0.41-3.25 0.62-3.63 0.37-4.83 0.36-7.75-1.62 1.98-1.49 1.98-1.49 4-3-0.99-1.49-0.99-1.49-2-3 0.99-0.33 1.98-0.66 3-1l-2-6h9c-3.75 3-3.75 3-6 3v2c3.47-0.5 3.47-0.5 7-1v3h-2v2c1.75 0.2 3.5 0.38 5.25 0.56 0.97 0.11 1.95 0.21 2.95 0.32 2.59 0.11 4.34-0.23 6.8-0.88 2.25 0.94 2.25 0.94 4 2v-3h-5v-2l5-1c-0.56-0.87-0.56-0.87-1.12-1.75-0.88-2.25-0.88-2.25 0-4.5 0.55-0.87 0.55-0.87 1.12-1.75 4.44 0.52 7.25 1.63 11 4 2.19 0.7 2.19 0.7 4 1v-2c-0.78-0.12-1.57-0.25-2.38-0.38-2.62-0.62-2.62-0.62-4.62-2.62l4-1c-0.99-1.49-0.99-1.49-2-3 0.38-2.19 0.38-2.19 1-4z" fill="#004FB0"/>
<path transform="translate(1e3 378)" d="m0 0c7.75-0.12 7.75-0.12 10 1v92l-4-1c0.5-1.49 0.5-1.49 1-3l-5-1v-6c0.99-0.5 0.99-0.5 2-1l2 4c0.93-7.13 1-14 0.56-21.1-0.05-0.96-0.1-1.92-0.16-2.9-0.12-2.33-0.26-4.65-0.4-6.98v1 2c-1.98 0.5-1.98 0.5-4 1-0.12-1.07-0.25-2.14-0.38-3.25-0.72-4.36-1.52-6.65-4.62-9.75 1.49-0.5 1.49-0.5 3-1 0.73-2.02 0.73-2.02 1-4l-2-1h2v-2l-5-2v-5l5 1c-0.5-2.48-0.5-2.48-1-5l-2 1c-3-0.98-4.75-1.75-7-4 3.21-1.61 6.44-1.06 10-1l-1-2c-2.02-0.65-2.02-0.65-4-1l4-5c-2.97-0.5-2.97-0.5-6-1v-2c3.88-1 3.88-1 5-1-1.72-0.07-1.72-0.07-3.46-0.15-1.5-0.07-2.99-0.15-4.48-0.23-0.75-0.03-1.51-0.06-2.28-0.09-1.94-0.1-3.86-0.31-5.78-0.53l-1-2c13.6-2.3 13.6-2.3 20-2l-2-5z" fill="#0052AF"/>
<path transform="translate(610,558)" d="m0 0h29v2c-0.99 0.5-0.99 0.5-2 1l5 5-5 1c2.92 0.89 5 1 8 0.5 5.65-0.71 11.4-0.67 17 0.5 1.85 1.55 1.85 1.55 3 3-3.29 1.1-5.15 0.93-8.56 0.56-3.71-0.41-3.71-0.41-7.44-0.56l-1 2-3-2c-2.62-1.31-4.23-0.9-7.12-0.56-0.92 0.1-1.83 0.2-2.76 0.31-0.7 0.08-1.4 0.16-2.12 0.25l6 3-3 2c-2-0.67-4-1.33-6-2v-4l-12-1v-1l4-1c-3.47-0.75-3.47-0.75-7-1-0.14-0.78-0.29-1.57-0.44-2.38-0.44-2.58-0.44-2.58-1.56-4.62-0.99 0.33-1.98 0.66-3 1v-2z" fill="#004FB0"/>
<path transform="translate(664 397)" d="m0 0c0.63 0.11 1.26 0.22 1.91 0.33l2 3 2 1v1c1.92-0.03 1.92-0.03 3.88-0.06 3.87-0.07 3.87-0.07 6.12 1.06l-2 4-3-2-1 2v-2l-5 1 2 4c-2.81 0.62-2.81 0.62-6 1l-3-2c-3.42 0.39-6.74 0.94-10.1 1.63-2.1 0.35-2.1 0.35-5.89 0.37-2.37-2.4-2.37-2.4-4-5-3.01-1.28-3.8-1.07-7 0-2.01-0.28-4.01-0.6-6-1 0.62-0.29 1.24-0.58 1.88-0.88 2.25-1.06 2.25-1.06 4.12-3.12v2c1.63 0.03 3.25 0.04 4.88 0.06 0.9 0.01 1.81 0.02 2.74 0.04 2.4 0.06 2.4 0.06 4.38-1.1 2.02 0.6 4.02 1.27 6 2l1-3 4 1 1-2-2-2c1.89-1.89 4.57-1.24 7.09-1.33z" fill="#004FB0"/>
<path transform="translate(779 397)" d="m0 0c2.16-0 4.31-0.02 6.46-0.04 1.38 0 2.76 0 4.14-0.01 1.25 0 2.49 0 3.78-0.01 3.23 0.24 5.45 0.85 8.35 2.25v-2h8c2.12 4.62 2.12 4.62 1 8-18.9 2.56-18.9 2.56-24 0v-2c-2.48-0.5-2.48-0.5-5-1v2h2l-1 3c-0.58-0.62-1.16-1.24-1.75-1.88-2.05-1.94-3.69-3.02-6.25-4.12v-1c-1.03 0.03-1.03 0.03-2.08 0.07-1.36 0.02-1.36 0.02-2.73 0.05-0.9 0.02-1.79 0.05-2.71 0.07-2.48-0.19-2.48-0.19-5.48-2.19 5.55-1.74 11.5-1.19 17.3-1.19z" fill="#004FB0"/>
<path transform="translate(757,504)" d="m0 0c2.42 0.14 4.83 0.29 7.25 0.44 1.02 0.06 1.02 0.06 2.07 0.12 3.32 0.21 6.48 0.46 9.68 1.44-1.26 2.51-2.5 2.87-5 4h2c1.67 0.32 3.34 0.65 5 1v2c-3.31 2.21-4.34 2.22-8.19 2.12-0.9-0.01-1.8-0.03-2.73-0.05-0.69-0.02-1.37-0.05-2.08-0.07v-2l-2-1v-4l2-1-4 1 1 5c-3.29 0.8-4.71 1.1-8 0v2c0.64 0.29 1.28 0.58 1.94 0.88 2.06 1.12 2.06 1.12 3.06 3.12h-10v-2c-0.99-0.33-1.98-0.66-3-1h6l1-2h-3v-3h2l1-2c-1.98 0.33-3.96 0.66-6 1l1-2h4v-3l4 1 1-2z" fill="#0052AF"/>
<path transform="translate(630 578)" d="m0 0c0.73-0.01 1.46-0.02 2.21-0.04 3.82-0.01 5.6 0.06 8.85 2.23-5.94 0.33-11.9 0.66-18 1v2c1.98-0.33 3.96-0.66 6-1l-2 6h8v-2l-5-1v-3c0.7 0.08 1.4 0.17 2.12 0.25 0.91 0.1 1.82 0.21 2.76 0.31 0.9 0.1 1.81 0.21 2.74 0.32 2.4 0.31 2.4 0.31 4.38-0.88 0.99 0.33 1.98 0.66 3 1l1 3-4 1 4 2c-4.49 3.17-9.74 1.74-14.9 1.19-4.29-0.52-4.29-0.52-8.01 1.28-0.36 0.5-0.72 1.01-1.1 1.53h-2l-2-5h2v-3l-2-1h3l-1-5c3.15-1.57 6.49-1.19 9.94-1.19z" fill="#004FB0"/>
<path transform="translate(752,732)" d="m0 0 5 2v2l2 1 1 2c-0.99 0.33-1.98 0.66-3 1v2c-2.74 1.37-5.49 2.72-8.25 4.06-1.17 0.59-1.17 0.59-2.36 1.18-0.75 0.37-1.5 0.73-2.28 1.11-1.04 0.51-1.04 0.51-2.1 1.03-2.43 0.75-3.65 0.51-6.01-0.38-1.75-1.56-1.75-1.56-3-3 3.4-2.09 6.05-2.18 10-2v-2h-2l1-5h7l-1-2c0.99-0.33 1.98-0.66 3-1l1-2z" fill="#0052AF"/>
<path transform="translate(834,422)" d="m0 0c2.32 0.44 4.58 1.04 6.87 1.62 2.17 0.61 2.17 0.61 4.13-0.62 2.01 0.28 4.01 0.61 6 1v3c0.63 0.06 1.25 0.12 1.9 0.18 0.82 0.09 1.63 0.17 2.48 0.26 0.81 0.08 1.62 0.16 2.46 0.24 2.16 0.32 2.16 0.32 4.16 1.32l-1 2c-1.99-0.03-3.97-0.07-5.96-0.1-2.24 0.02-2.24 0.02-5.04 1.1-0.99-0.33-1.98-0.66-3-1-5.1-0.25-5.1-0.25-10.1 0.62-3.2 0.62-5.91-0.63-8.94-1.62 1-2 1-2 4-3-1.21-0.19-1.21-0.19-2.44-0.38-0.84-0.2-1.69-0.41-2.56-0.62l-1-2c1.13-0.14 2.27-0.29 3.44-0.44 3.37-0.17 3.37-0.17 4.56-1.56z" fill="#004FB0"/>
<path transform="translate(619,686)" d="m0 0h13l1 3-1 2c2.31 0.33 4.62 0.66 7 1-0.99 1.49-0.99 1.49-2 3l1 3-4 2-1-1-1 2c-2-1-2-1-3-4l-2 2c-3.12 0.12-3.12 0.12-6 0v-3h4l-5-1-1-9z" fill="#004FB0"/>
<path transform="translate(855,438)" d="m0 0c2.97 0.33 5.94 0.66 9 1 0.6 2.76 1 5.16 1 8-7.43 0.14-7.43 0.14-11-1v2c2.31 0.33 4.62 0.66 7 1l1 4c-5.13-1.39-10-3.08-15-5v-2l-5 1 2-3c2.16-0.29 2.16-0.29 4.62-0.19 0.82 0.03 1.64 0.06 2.48 0.08 0.63 0.04 1.25 0.07 1.9 0.11v-2c-0.99-0.33-1.98-0.66-3-1 1.81-0.62 1.81-0.62 4-1l3 2 1-2h-3v-2z" fill="#004FB0"/>
<path transform="translate(677,563)" d="m0 0 2-1c2.12 0.94 2.12 0.94 4 2v-2c2.39 0.58 4.67 1.22 7 2l1-2-1 10h-2v-2l-13-1v-1c4.46-0.5 4.46-0.5 9-1v-2c-0.68 0.07-1.35 0.14-2.05 0.22-0.89 0.09-1.78 0.18-2.7 0.28-0.88 0.09-1.76 0.19-2.67 0.28-2.58 0.22-2.58 0.22-6.58 0.22l-1 2h4l-1 3c-1.98-0.66-3.96-1.32-6-2v-3h-10v-2c1.64-0.24 3.29-0.48 4.93-0.71 1.37-0.19 2.74-0.4 4.11-0.61 4.27-0.64 7.74-0.48 12 0.32z" fill="#004FB0"/>
<path transform="translate(845,490)" d="m0 0v2h8c-1 3-1 3-2.75 3.88-14.9 4.53-14.9 4.53-21.2 4.12l-1-4-4-1v-1c2.47-0.07 4.61-0.11 7 0.56 2.57 0.56 4.47 0.04 7-0.56h2c-0.99-1.32-1.98-2.64-3-4 3.29-1.1 4.71-0.8 8 0z" fill="#004FB0"/>
<path transform="translate(620,541)" d="m0 0c1.42-0.03 2.83-0.05 4.25-0.06 1.18-0.02 1.18-0.02 2.39-0.04 4.36 0.18 8.25 1.7 12.4 3.1v1c-2.12 0.36-4.25 0.71-6.38 1.06-1.77 0.3-1.77 0.3-3.58 0.6-3.04 0.34-3.04 0.34-5.04-0.66l-1 2h15l-1 3c-7.92-0.33-15.8-0.66-24-1v2c-2-1-2-1-3-4 7.43-1.29 7.43-1.29 11 0l-1-7z" fill="#004FB1"/>
<path transform="translate(832,399)" d="m0 0v2h-2v2c2.97 0.5 2.97 0.5 6 1v1c-2.06 0.25-4.12 0.47-6.19 0.69-1.15 0.13-2.29 0.25-3.48 0.38-3.75-0.08-5.39-0.81-8.33-3.07l-1-2c-2.53-0.66-2.53-0.66-5-1v-2c6.84-1.14 13.6-2.22 20 1z" fill="#004FB0"/>
<path transform="translate(1013,389)" d="m0 0h1c0.14 6.14 0.29 12.3 0.43 18.4 0.05 2.09 0.09 4.18 0.14 6.26 0.07 3.01 0.14 6.02 0.21 9.02 0.03 1.39 0.03 1.39 0.07 2.81 0.04 1.73 0.07 3.45 0.1 5.18 0.05 2.07 0.11 4.14 0.19 6.21-0.14 3.01-0.54 4.6-2.14 7.11-0.65-13.8-1.1-27.7-1.12-41.6-0.01-1.23-0.01-2.45-0.02-3.71 0-1.13 0.01-2.26 0.01-3.42v-3.04c0.13-2.27 0.13-2.27 1.13-3.27z" fill="#004FB0"/>
<path transform="translate(610,443)" d="m0 0c2.31 0.33 4.62 0.66 7 1 1.12 2.81 1.12 2.81 2 6-0.99 1.49-0.99 1.49-2 3l1 2c-3.29 1.1-4.71 0.8-8 0-1.29-8.57-1.29-8.57 0-12z" fill="#004FB0"/>
<path transform="translate(729 745)" d="m0 0c1.21 0.03 1.21 0.03 2.44 0.06v3l3 2h-2c-0.23 0.64-0.46 1.28-0.69 1.94-1.31 2.06-1.31 2.06-3.87 2.88-0.81 0.06-1.61 0.12-2.44 0.18l-1-1c-0.99 0.33-1.98 0.66-3 1l-1-3-3-2c4.45-0.49 4.45-0.49 9-1l-1-3c1-1 1-1 3.56-1.06z" fill="#0052AF"/>
<path transform="translate(801,665)" d="m0 0c1.33 0.67 2.67 1.33 4 2 0.7 0.29 1.4 0.58 2.12 0.88 2.3 1.37 2.9 2.67 3.88 5.12h2l-1 3c-0.87-0.31-1.73-0.62-2.62-0.94-3.14-0.98-6.13-1.6-9.38-2.06l-1-3-2-2 4-1v-2z" fill="#0052AF"/>
<path transform="translate(817,420)" d="m0 0c1.94 0.31 1.94 0.31 4 1l1 3 2 1v3c0.99 0.33 1.98 0.66 3 1v1h-23l-1-2c5.72-0.83 11.2-1.12 17-1-0.35-1.98-0.35-1.98-1-4l-2-1v-2z" fill="#004FB0"/>
<path transform="translate(756,397)" d="m0 0c2.19-0.38 2.19-0.38 5 0 1.99 1.84 3.39 3.79 5 6l1-2v2h5l1 2h-17l-1-2 4-1-3-2v-3z" fill="#004FB0"/>
<path transform="translate(808,495)" d="m0 0c1.94 0.31 1.94 0.31 4 1l1 3h8l1 3c-5.45 1.49-5.45 1.49-11 3l-1-2 2-1c-2.48-0.99-2.48-0.99-5-2l1-5z" fill="#004FB0"/>
<path transform="translate(615,686)" d="m0 0c2.57 2.57 2.4 3.99 2.69 7.56 0.08 0.99 0.17 1.99 0.26 3.01 0.02 0.8 0.03 1.6 0.05 2.43-1 1-1 1-3.94 1.25-1.01-0.08-2.02-0.16-3.06-0.25l-2-3h3c-0.51-2.17-1-4-2-6h5v-2l-4-1 4-2z" fill="#004FB0"/>
<path transform="translate(693,700)" d="m0 0c2.44 0.38 2.44 0.38 5 1l1 2 1-3 13 4v1h-8l1 5h-2v-5l-1 2-7-2v-3c-0.99-0.33-1.98-0.66-3-1v-1z" fill="#004FB0"/>
<path transform="translate(749 386)" d="m0 0c1.07 0.05 2.15 0.11 3.25 0.17 1.68 0.11 1.68 0.11 3.39 0.22 1.7 0.09 1.7 0.09 3.43 0.18 2.8 0.16 5.59 0.32 8.39 0.5l-2 5h-5l-2-4c-1.95 0.25-1.95 0.25-3.94 0.5-4.72 0.54-9.32 0.58-14.1 0.5 2.58-3.34 4.44-3.31 8.54-3.07z" fill="#004FB1"/>
<path transform="translate(777 386)" d="m0 0c1.6 0.08 1.6 0.08 3.24 0.16 1.11 0.06 2.22 0.13 3.37 0.19 1.13 0.06 2.25 0.11 3.41 0.17 2.78 0.14 5.56 0.3 8.34 0.46v1c-1.6 0.14-3.21 0.29-4.81 0.43-1 0.09-1.99 0.18-3.01 0.28l-6.36 0.58c-1.49 0.13-1.49 0.13-3.01 0.27-0.92 0.08-1.84 0.17-2.79 0.25-1 0.09-1 0.09-2.02 0.19l1 2h-4c-1.75-2-1.75-2-3-4 3.36-2.05 5.75-2.19 9.64-1.98z" fill="#004FB0"/>
<path transform="translate(701,754)" d="m0 0h4v3c0.66 0.5 1.32 0.99 2 1.5 0.66 0.5 1.32 0.99 2 1.5v3c-3.63 0.2-5.87-0.14-9-2-0.04-2-0.04-4 0-6l1-1z" fill="#0052AF"/>
<path transform="translate(627,599)" d="m0 0-4 2v3l2 1-2 2c-3.04-0.02-3.04-0.02-6.62-0.38-1.19-0.11-2.38-0.22-3.61-0.33-0.91-0.1-1.83-0.19-2.77-0.29v-2h9l1-5c3.13-1.04 3.99-0.93 7 0z" fill="#004FB1"/>
<path transform="translate(843 467)" d="m0 0c1.23 0.29 1.23 0.29 2.48 0.59 0.94 0.23 0.94 0.23 1.9 0.47v2c-1 0.33-1.99 0.66-3 1 0.99 0.33 1.98 0.66 3 1v1l-8 1c-0.34-0.99-0.66-1.98-1-3-1-0.33-1.99-0.66-3-1 0.33-0.99 0.65-1.98 1-3 2.63-1.31 3.8-0.75 6.62-0.06z" fill="#0052AF"/>
<path transform="translate(899,407)" d="m0 0c0.91 0.19 1.82 0.37 2.75 0.56 3.05 0.63 3.05 0.63 5.13-0.09 2.71-0.6 4.66-0.14 7.37 0.47 1.34 0.29 1.34 0.29 2.7 0.59 0.68 0.15 1.35 0.31 2.05 0.47v1c-1.6 0.2-3.21 0.38-4.81 0.56-0.9 0.11-1.79 0.21-2.71 0.32-2.48 0.12-2.48 0.12-5.48-0.88l1 5h-5l1-2h2c-1.37-2.74-3.4-3.47-6-5v-1z" fill="#004FB1"/>
<path transform="translate(808,640)" d="m0 0v2c-1.67-0.32-3.33-0.66-5-1-0.76-0.15-1.52-0.29-2.3-0.44-0.81-0.17-1.62-0.33-2.45-0.5-0.78-0.15-1.56-0.3-2.36-0.46-0.94-0.3-0.94-0.3-1.89-0.6l-1-2c-2.02-1.13-2.02-1.13-4-2 6.33-2.44 13.3 2.37 19 5z" fill="#004FB0"/>
<path transform="translate(817,698)" d="m0 0h10c-1 4-1 4-2.88 5.75-2.12 1.25-2.12 1.25-5.12 1.25l1-3c-0.99-0.33-1.98-0.66-3-1v-3z" fill="#0052AF"/>
<path transform="translate(743,615)" d="m0 0c4.24 1.61 8.27 3.58 12.3 5.62 0.65 0.33 1.29 0.65 1.96 0.99 1.58 0.79 3.15 1.59 4.73 2.39v2h-4v-2c-1.36-0.15-1.36-0.15-2.75-0.31-3.35-0.71-4.67-1.54-7.25-3.69-0.72-0.33-1.44-0.66-2.19-1-1.81-1-1.81-1-2.81-4z" fill="#004FB0"/>
<path transform="translate(620,551)" d="m0 0h7v2h12c-0.99 0.5-0.99 0.5-2 1v2c-6.46 0.4-11.1-0.41-17-3v-2z" fill="#004FB1"/>
<path transform="translate(778,482)" d="m0 0c2.48 0.5 2.48 0.5 5 1v2l5-3c-0.38 2.44-0.38 2.44-1 5-0.99 0.5-0.99 0.5-2 1l1 2c-2.34-0.26-4.68-0.59-7-1l-1-2 4-1-4-4z" fill="#0053AF"/>
<path transform="translate(709,753)" d="m0 0c3.12 0.49 6 1 9 2 0.69 2.06 0.69 2.06 1 4h-5v-2l-5-1v-3z" fill="#0052AF"/>
<path transform="translate(804,710)" d="m0 0h6c-0.19 1.88-0.19 1.88-1 4-3.89 2.33-6.68 2-11 1 1.95-1.95 3.53-2.85 6-4v-1z" fill="#0052AF"/>
<path transform="translate(644,405)" d="m0 0c1.79-0.05 3.58-0.09 5.38-0.12 0.99-0.03 1.99-0.05 3.02-0.08 2.6 0.2 2.6 0.2 4.6 2.2-3.88 1.19-6.92 2-11 2v-3l-2-1z" fill="#0053AF"/>
<path transform="translate(744,739)" d="m0 0c0.52 0.35 1.03 0.7 1.56 1.06 3.35 1.29 5.94 0.46 9.44-0.06l2 2c-6.19 3.16-6.19 3.16-9.88 2.44-2.12-1.44-2.12-1.44-2.93-3.56-0.06-0.62-0.13-1.24-0.19-1.88z" fill="#004FB0"/>
<path transform="translate(651,572)" d="m0 0c5.65-0.35 9.03 0.57 14 3v1c-5.22 0.18-9.07-0.03-14-2v-2z" fill="#004FB1"/>
<path transform="translate(881,483)" d="m0 0c3.63-0.2 5.87 0.14 9 2v3c-4.46 0.5-4.46 0.5-9 1v-6z" fill="#004FB0"/>
<path transform="translate(971,400)" d="m0 0v3c-3.62 1.21-4.64 0.54-8-1v-3c4.62-1.25 4.62-1.25 8 1z" fill="#0053AF"/>
<path transform="translate(632,561)" d="m0 0c0.99 1.49 0.99 1.49 2 3-5.54 0.43-9.9-1.09-15-3v-1c4.52-1.41 8.69-0.87 13 1z" fill="#0053AF"/>
<path transform="translate(749,682)" d="m0 0c2 0.31 2 0.31 4 1 1.25 2.49 0.78 3.41 0 6h-4c-0.38-1.99-0.71-3.99-1-6l1-1z" fill="#004FB0"/>
<path transform="translate(806,420)" d="m0 0 3 2v2h4v2h-11v-2h4v-4z" fill="#004FB1"/>
<path transform="translate(813,642)" d="m0 0 9 4v2c-3.81-0.67-7.35-1.73-11-3l2-3z" fill="#0050B0"/>
<path transform="translate(661,606)" d="m0 0 10 2v1c-1.46 0.19-2.92 0.38-4.38 0.56-0.81 0.11-1.62 0.21-2.46 0.32-2.16 0.12-2.16 0.12-4.16-0.88l1-3z" fill="#004FB1"/>
<path transform="translate(900,485)" d="m0 0 4 1z" fill="#000002"/>
<path transform="translate(978,474)" d="m0 0 4 1z" fill="#000102"/>
<path transform="translate(907,484)" d="m0 0c3 1 3 1 3 1z" fill="#000102"/>
<path transform="translate(970,475)" d="m0 0c3 1 3 1 3 1z" fill="#000102"/>
<path transform="translate(856,494)" d="m0 0 2 1z" fill="#000102"/>
<path transform="translate(914,483)" d="m0 0 2 1z" fill="#000102"/>
<path transform="translate(919,482)" d="m0 0 2 1z" fill="#000102"/>
<path transform="translate(959,476)" d="m0 0 2 1z" fill="#000102"/>
</svg>
